<mxfile host="app.diagrams.net" agent="Mozilla/5.0 (Windows NT 10.0; Win64; x64) AppleWebKit/537.36 (KHTML, like Gecko) Chrome/138.0.0.0 Safari/537.36 OPR/122.0.0.0" version="28.2.5">
  <diagram name="Seite-1" id="Zduqd0Z500u31DulAqkh">
    <mxGraphModel dx="1131" dy="564" grid="1" gridSize="10" guides="1" tooltips="1" connect="1" arrows="1" fold="1" page="1" pageScale="1" pageWidth="827" pageHeight="1169" math="0" shadow="0">
      <root>
        <mxCell id="0" />
        <mxCell id="1" parent="0" />
        <mxCell id="UpNKA8lAA1_yf1bwaX7A-5" value="" style="rounded=0;whiteSpace=wrap;html=1;strokeWidth=0;" parent="1" vertex="1">
          <mxGeometry x="110" y="230" width="780" height="380" as="geometry" />
        </mxCell>
        <mxCell id="UpNKA8lAA1_yf1bwaX7A-6" value="&lt;font style=&quot;font-size: 16px;&quot;&gt;GestureBot System&lt;/font&gt;" style="text;html=1;align=center;verticalAlign=middle;whiteSpace=wrap;rounded=0;" parent="1" vertex="1">
          <mxGeometry x="720" y="240" width="160" height="30" as="geometry" />
        </mxCell>
        <mxCell id="UpNKA8lAA1_yf1bwaX7A-7" value="Operator" style="shape=umlActor;verticalLabelPosition=bottom;verticalAlign=top;html=1;outlineConnect=0;" parent="1" vertex="1">
          <mxGeometry x="120" y="360" width="80" height="120" as="geometry" />
        </mxCell>
        <mxCell id="UpNKA8lAA1_yf1bwaX7A-8" value="Connect to Robot" style="ellipse;whiteSpace=wrap;html=1;" parent="1" vertex="1">
          <mxGeometry x="280" y="420" width="120" height="80" as="geometry" />
        </mxCell>
        <mxCell id="UpNKA8lAA1_yf1bwaX7A-9" value="Detect Trash&lt;div&gt;(Camera /&amp;nbsp;&lt;span style=&quot;background-color: transparent; color: light-dark(rgb(0, 0, 0), rgb(255, 255, 255));&quot;&gt;LiDAR)&lt;/span&gt;&lt;/div&gt;" style="ellipse;whiteSpace=wrap;html=1;" parent="1" vertex="1">
          <mxGeometry x="450" y="450" width="120" height="80" as="geometry" />
        </mxCell>
        <mxCell id="UpNKA8lAA1_yf1bwaX7A-10" value="Abort / Stop" style="ellipse;whiteSpace=wrap;html=1;" parent="1" vertex="1">
          <mxGeometry x="280" y="510" width="120" height="80" as="geometry" />
        </mxCell>
        <mxCell id="UpNKA8lAA1_yf1bwaX7A-11" value="Navigate Robot&lt;div&gt;(Forward / Back / Turn / Stop)&lt;/div&gt;" style="ellipse;whiteSpace=wrap;html=1;" parent="1" vertex="1">
          <mxGeometry x="280" y="250" width="120" height="80" as="geometry" />
        </mxCell>
        <mxCell id="UpNKA8lAA1_yf1bwaX7A-12" value="Pickup Trash" style="ellipse;whiteSpace=wrap;html=1;" parent="1" vertex="1">
          <mxGeometry x="560" y="350" width="120" height="80" as="geometry" />
        </mxCell>
        <mxCell id="UpNKA8lAA1_yf1bwaX7A-13" value="Monitor Video Feed" style="ellipse;whiteSpace=wrap;html=1;" parent="1" vertex="1">
          <mxGeometry x="480" y="250" width="120" height="80" as="geometry" />
        </mxCell>
        <mxCell id="UpNKA8lAA1_yf1bwaX7A-14" value="Auto-Approach Target" style="ellipse;whiteSpace=wrap;html=1;" parent="1" vertex="1">
          <mxGeometry x="740" y="370" width="120" height="80" as="geometry" />
        </mxCell>
        <mxCell id="UpNKA8lAA1_yf1bwaX7A-15" value="&lt;div&gt;Drop Trash&lt;/div&gt;(Bin Zone)" style="ellipse;whiteSpace=wrap;html=1;" parent="1" vertex="1">
          <mxGeometry x="740" y="500" width="120" height="80" as="geometry" />
        </mxCell>
        <mxCell id="UpNKA8lAA1_yf1bwaX7A-16" value="Align &amp;amp; Grasp&lt;div&gt;(OpenManipulator)&lt;/div&gt;" style="ellipse;whiteSpace=wrap;html=1;" parent="1" vertex="1">
          <mxGeometry x="580" y="490" width="120" height="80" as="geometry" />
        </mxCell>
        <mxCell id="UpNKA8lAA1_yf1bwaX7A-17" value="" style="endArrow=none;html=1;rounded=0;entryX=0;entryY=1;entryDx=0;entryDy=0;" parent="1" source="UpNKA8lAA1_yf1bwaX7A-7" target="UpNKA8lAA1_yf1bwaX7A-11" edge="1">
          <mxGeometry width="50" height="50" relative="1" as="geometry">
            <mxPoint x="490" y="420" as="sourcePoint" />
            <mxPoint x="250" y="470" as="targetPoint" />
          </mxGeometry>
        </mxCell>
        <mxCell id="UpNKA8lAA1_yf1bwaX7A-18" value="" style="endArrow=none;html=1;rounded=0;entryX=0;entryY=1;entryDx=0;entryDy=0;" parent="1" source="UpNKA8lAA1_yf1bwaX7A-7" target="UpNKA8lAA1_yf1bwaX7A-13" edge="1">
          <mxGeometry width="50" height="50" relative="1" as="geometry">
            <mxPoint x="490" y="420" as="sourcePoint" />
            <mxPoint x="540" y="370" as="targetPoint" />
          </mxGeometry>
        </mxCell>
        <mxCell id="UpNKA8lAA1_yf1bwaX7A-19" value="" style="endArrow=none;html=1;rounded=0;entryX=0;entryY=0.5;entryDx=0;entryDy=0;" parent="1" source="UpNKA8lAA1_yf1bwaX7A-7" target="UpNKA8lAA1_yf1bwaX7A-12" edge="1">
          <mxGeometry width="50" height="50" relative="1" as="geometry">
            <mxPoint x="490" y="420" as="sourcePoint" />
            <mxPoint x="540" y="370" as="targetPoint" />
          </mxGeometry>
        </mxCell>
        <mxCell id="UpNKA8lAA1_yf1bwaX7A-20" value="" style="endArrow=none;html=1;rounded=0;exitX=0;exitY=0.5;exitDx=0;exitDy=0;" parent="1" source="UpNKA8lAA1_yf1bwaX7A-8" target="UpNKA8lAA1_yf1bwaX7A-7" edge="1">
          <mxGeometry width="50" height="50" relative="1" as="geometry">
            <mxPoint x="490" y="420" as="sourcePoint" />
            <mxPoint x="540" y="370" as="targetPoint" />
          </mxGeometry>
        </mxCell>
        <mxCell id="UpNKA8lAA1_yf1bwaX7A-21" value="" style="endArrow=none;html=1;rounded=0;exitX=0;exitY=0.5;exitDx=0;exitDy=0;" parent="1" source="UpNKA8lAA1_yf1bwaX7A-10" target="UpNKA8lAA1_yf1bwaX7A-7" edge="1">
          <mxGeometry width="50" height="50" relative="1" as="geometry">
            <mxPoint x="490" y="420" as="sourcePoint" />
            <mxPoint x="540" y="370" as="targetPoint" />
          </mxGeometry>
        </mxCell>
        <mxCell id="UpNKA8lAA1_yf1bwaX7A-22" value="" style="endArrow=none;dashed=1;html=1;rounded=0;exitX=1;exitY=0;exitDx=0;exitDy=0;entryX=0;entryY=1;entryDx=0;entryDy=0;" parent="1" source="UpNKA8lAA1_yf1bwaX7A-9" target="UpNKA8lAA1_yf1bwaX7A-12" edge="1">
          <mxGeometry width="50" height="50" relative="1" as="geometry">
            <mxPoint x="490" y="420" as="sourcePoint" />
            <mxPoint x="540" y="370" as="targetPoint" />
          </mxGeometry>
        </mxCell>
        <mxCell id="UpNKA8lAA1_yf1bwaX7A-23" value="" style="endArrow=none;dashed=1;html=1;rounded=0;exitX=0.5;exitY=0;exitDx=0;exitDy=0;entryX=0.5;entryY=1;entryDx=0;entryDy=0;" parent="1" source="UpNKA8lAA1_yf1bwaX7A-16" target="UpNKA8lAA1_yf1bwaX7A-12" edge="1">
          <mxGeometry width="50" height="50" relative="1" as="geometry">
            <mxPoint x="490" y="420" as="sourcePoint" />
            <mxPoint x="540" y="370" as="targetPoint" />
          </mxGeometry>
        </mxCell>
        <mxCell id="UpNKA8lAA1_yf1bwaX7A-24" value="" style="endArrow=none;dashed=1;html=1;rounded=0;exitX=0;exitY=0.5;exitDx=0;exitDy=0;entryX=1;entryY=0.5;entryDx=0;entryDy=0;" parent="1" source="UpNKA8lAA1_yf1bwaX7A-14" target="UpNKA8lAA1_yf1bwaX7A-12" edge="1">
          <mxGeometry width="50" height="50" relative="1" as="geometry">
            <mxPoint x="490" y="420" as="sourcePoint" />
            <mxPoint x="540" y="370" as="targetPoint" />
          </mxGeometry>
        </mxCell>
        <mxCell id="UpNKA8lAA1_yf1bwaX7A-25" value="" style="endArrow=none;dashed=1;html=1;rounded=0;entryX=1;entryY=1;entryDx=0;entryDy=0;exitX=0;exitY=0;exitDx=0;exitDy=0;" parent="1" source="UpNKA8lAA1_yf1bwaX7A-15" target="UpNKA8lAA1_yf1bwaX7A-12" edge="1">
          <mxGeometry width="50" height="50" relative="1" as="geometry">
            <mxPoint x="490" y="420" as="sourcePoint" />
            <mxPoint x="540" y="370" as="targetPoint" />
          </mxGeometry>
        </mxCell>
        <mxCell id="UpNKA8lAA1_yf1bwaX7A-26" value="«include»" style="text;html=1;align=center;verticalAlign=middle;whiteSpace=wrap;rounded=0;" parent="1" vertex="1">
          <mxGeometry x="510" y="420" width="60" height="30" as="geometry" />
        </mxCell>
        <mxCell id="UpNKA8lAA1_yf1bwaX7A-27" value="«include»" style="text;html=1;align=center;verticalAlign=middle;whiteSpace=wrap;rounded=0;" parent="1" vertex="1">
          <mxGeometry x="570" y="450" width="60" height="30" as="geometry" />
        </mxCell>
        <mxCell id="UpNKA8lAA1_yf1bwaX7A-28" value="«include»" style="text;html=1;align=center;verticalAlign=middle;whiteSpace=wrap;rounded=0;" parent="1" vertex="1">
          <mxGeometry x="660" y="460" width="60" height="30" as="geometry" />
        </mxCell>
        <mxCell id="UpNKA8lAA1_yf1bwaX7A-29" value="«include»" style="text;html=1;align=center;verticalAlign=middle;whiteSpace=wrap;rounded=0;" parent="1" vertex="1">
          <mxGeometry x="680" y="370" width="60" height="30" as="geometry" />
        </mxCell>
        <mxCell id="UpNKA8lAA1_yf1bwaX7A-31" value="" style="rounded=0;whiteSpace=wrap;html=1;strokeWidth=3;fillColor=none;" parent="1" vertex="1">
          <mxGeometry x="260" y="240" width="620" height="360" as="geometry" />
        </mxCell>
      </root>
    </mxGraphModel>
  </diagram>
</mxfile>
